<svg xmlns="http://www.w3.org/2000/svg" viewBox="0 0 1000 1000">
  <style>
    path { fill: #262626; }
    @media (prefers-color-scheme: dark) {
      path { fill: #ffffff; }
    }
  </style>
  <path d="M720.724 656.952L470.786 771.622L458.073 743.445L708.011 628.775L720.724 656.952ZM768.355 554.592L364.086 739.971L351.369 711.795L755.639 526.416L768.355 554.592ZM528.792 583.994L300.976 688.521L288.255 660.348L516.071 555.821L528.792 583.994ZM453.456 538.265L260.796 626.608L248.078 598.433L440.739 510.09L453.456 538.265ZM462.183 454.234L240.782 555.576L228.094 527.388L449.494 426.046L462.183 454.234ZM771.327 472.141L612.483 544.977L599.766 516.802L758.609 443.965L771.327 472.141ZM751.542 401.362L530.552 502.635L517.838 474.457L738.829 373.185L751.542 401.362ZM649.353 288.182L243.39 474.446L230.669 446.272L636.632 260.008L649.353 288.182ZM544.517 256.791L288.45 374.219L275.743 346.039L531.81 228.611L544.517 256.791Z"/>
</svg>
