<svg width="14" height="14" viewBox="0 0 14 14" fill="none" xmlns="http://www.w3.org/2000/svg">
<mask id="mask0_676_8082" style="mask-type:alpha" maskUnits="userSpaceOnUse" x="0" y="0" width="14" height="14">
<rect width="14" height="14" fill="#D9D9D9"/>
</mask>
<g mask="url(#mask0_676_8082)">
<path d="M6.56299 3.04004V0.88623H7.43799V3.04004H6.56299ZM10.1056 4.50961L9.50547 3.9095L11.0097 2.35579L11.6301 2.98506L10.1056 4.50961ZM10.9604 7.4375V6.5625H13.1143V7.4375H10.9604ZM6.56299 13.1138V10.9655H7.43799V13.1138H6.56299ZM3.90664 4.48613L2.35628 2.99075L2.99124 2.37592L4.51578 3.89492L3.90664 4.48613ZM11.0008 11.6442L9.50547 10.0905L10.0967 9.50498L11.6246 10.9913L11.0008 11.6442ZM0.886719 7.4375V6.5625H3.04053V7.4375H0.886719ZM2.98555 11.6442L2.37641 11.0093L3.88082 9.50498L4.19714 9.80336L4.51914 10.1108L2.98555 11.6442ZM4.72884 9.27165C4.10439 8.64719 3.79216 7.88997 3.79216 7C3.79216 6.11003 4.10439 5.35281 4.72884 4.72836C5.3533 4.1039 6.11052 3.79167 7.00049 3.79167C7.89046 3.79167 8.64768 4.1039 9.27214 4.72836C9.8966 5.35281 10.2088 6.11003 10.2088 7C10.2088 7.88997 9.8966 8.64719 9.27214 9.27165C8.64768 9.89611 7.89046 10.2083 7.00049 10.2083C6.11052 10.2083 5.3533 9.89611 4.72884 9.27165ZM8.64841 8.64792C9.10535 8.19097 9.33382 7.64167 9.33382 7C9.33382 6.35834 9.10535 5.80903 8.64841 5.35209C8.19146 4.89514 7.64216 4.66667 7.00049 4.66667C6.35882 4.66667 5.80952 4.89514 5.35257 5.35209C4.89563 5.80903 4.66716 6.35834 4.66716 7C4.66716 7.64167 4.89563 8.19097 5.35257 8.64792C5.80952 9.10486 6.35882 9.33334 7.00049 9.33334C7.64216 9.33334 8.19146 9.10486 8.64841 8.64792Z" fill="#1C1B1F"/>
</g>
</svg>
