<svg width="18" height="18" viewBox="0 0 18 18" fill="none" xmlns="http://www.w3.org/2000/svg">
<mask id="mask0_2281_8934" style="mask-type:alpha" maskUnits="userSpaceOnUse" x="0" y="0" width="18" height="18">
<rect width="18" height="18" fill="#D9D9D9"/>
</mask>
<g mask="url(#mask0_2281_8934)">
<path d="M8.25 8.25V3H16.5V8.25H8.25ZM1.5 15V9.75H9V15H1.5ZM1.5 8.25V3H6.75V8.25H1.5ZM9.75 6.75H15V4.5H9.75V6.75ZM3 13.5H7.5V11.25H3V13.5ZM3 6.75H5.25V4.5H3V6.75ZM12.75 16.5L12.525 15.375C12.375 15.3125 12.2344 15.2469 12.1031 15.1781C11.9719 15.1094 11.8375 15.025 11.7 14.925L10.6125 15.2625L9.8625 13.9875L10.725 13.2375C10.7 13.075 10.6875 12.9125 10.6875 12.75C10.6875 12.5875 10.7 12.425 10.725 12.2625L9.8625 11.5125L10.6125 10.2375L11.7 10.575C11.8375 10.475 11.9719 10.3906 12.1031 10.3219C12.2344 10.2531 12.375 10.1875 12.525 10.125L12.75 9H14.25L14.475 10.125C14.625 10.1875 14.7656 10.2531 14.8969 10.3219C15.0281 10.3906 15.1625 10.475 15.3 10.575L16.3875 10.2375L17.1375 11.5125L16.275 12.2625C16.3 12.425 16.3125 12.5875 16.3125 12.75C16.3125 12.9125 16.3 13.075 16.275 13.2375L17.1375 13.9875L16.3875 15.2625L15.3 14.925C15.1625 15.025 15.0281 15.1094 14.8969 15.1781C14.7656 15.2469 14.625 15.3125 14.475 15.375L14.25 16.5H12.75ZM14.5594 13.8094C14.8531 13.5156 15 13.1625 15 12.75C15 12.3375 14.8531 11.9844 14.5594 11.6906C14.2656 11.3969 13.9125 11.25 13.5 11.25C13.0875 11.25 12.7344 11.3969 12.4406 11.6906C12.1469 11.9844 12 12.3375 12 12.75C12 13.1625 12.1469 13.5156 12.4406 13.8094C12.7344 14.1031 13.0875 14.25 13.5 14.25C13.9125 14.25 14.2656 14.1031 14.5594 13.8094Z" fill="white"/>
</g>
</svg>
