<svg width="14" height="14" viewBox="0 0 14 14" fill="none" xmlns="http://www.w3.org/2000/svg">
<mask id="mask0_676_8092" style="mask-type:alpha" maskUnits="userSpaceOnUse" x="0" y="0" width="14" height="14">
<rect width="14" height="14" fill="#D9D9D9"/>
</mask>
<g mask="url(#mask0_676_8092)">
<path d="M5.73177 12.6437L0.773438 7.68538L4.81302 3.66038L3.26719 2.11454L4.17135 1.16663L10.6901 7.68538L5.73177 12.6437ZM5.73177 4.57913L2.61094 7.69996H8.8526L5.73177 4.57913ZM11.5505 12.25C11.2005 12.25 10.904 12.126 10.6609 11.8781C10.4179 11.6302 10.2964 11.3263 10.2964 10.9666C10.2964 10.7041 10.362 10.4562 10.4932 10.2229C10.6245 9.98954 10.7727 9.76107 10.938 9.53746L11.5505 8.74996L12.1922 9.53746C12.3477 9.76107 12.4936 9.98954 12.6297 10.2229C12.7658 10.4562 12.8339 10.7041 12.8339 10.9666C12.8339 11.3263 12.7075 11.6302 12.4547 11.8781C12.2019 12.126 11.9005 12.25 11.5505 12.25Z" fill="#1C1B1F"/>
</g>
</svg>
