<svg width="18" height="18" viewBox="0 0 18 18" fill="none" xmlns="http://www.w3.org/2000/svg">
<mask id="mask0_2281_8926" style="mask-type:alpha" maskUnits="userSpaceOnUse" x="0" y="0" width="18" height="18">
<rect width="18" height="18" fill="#D9D9D9"/>
</mask>
<g mask="url(#mask0_2281_8926)">
<path d="M5.625 15C4.9 15 4.28125 14.7438 3.76875 14.2313C3.25625 13.7188 3 13.1 3 12.375C3 11.65 3.25625 11.0313 3.76875 10.5188C4.28125 10.0063 4.9 9.75 5.625 9.75H13.875C14.6 9.75 15.2188 10.0063 15.7313 10.5188C16.2438 11.0313 16.5 11.65 16.5 12.375C16.5 13.1 16.2438 13.7188 15.7313 14.2313C15.2188 14.7438 14.6 15 13.875 15H5.625ZM5.625 13.5H13.875C14.1875 13.5 14.4531 13.3906 14.6719 13.1719C14.8906 12.9531 15 12.6875 15 12.375C15 12.0625 14.8906 11.7969 14.6719 11.5781C14.4531 11.3594 14.1875 11.25 13.875 11.25H5.625C5.3125 11.25 5.04688 11.3594 4.82812 11.5781C4.60937 11.7969 4.5 12.0625 4.5 12.375C4.5 12.6875 4.60937 12.9531 4.82812 13.1719C5.04688 13.3906 5.3125 13.5 5.625 13.5ZM4.125 8.25C3.4 8.25 2.78125 7.99375 2.26875 7.48125C1.75625 6.96875 1.5 6.35 1.5 5.625C1.5 4.9 1.75625 4.28125 2.26875 3.76875C2.78125 3.25625 3.4 3 4.125 3H12.375C13.1 3 13.7188 3.25625 14.2313 3.76875C14.7438 4.28125 15 4.9 15 5.625C15 6.35 14.7438 6.96875 14.2313 7.48125C13.7188 7.99375 13.1 8.25 12.375 8.25H4.125ZM4.125 6.75H12.375C12.6875 6.75 12.9531 6.64063 13.1719 6.42188C13.3906 6.20312 13.5 5.9375 13.5 5.625C13.5 5.3125 13.3906 5.04688 13.1719 4.82812C12.9531 4.60937 12.6875 4.5 12.375 4.5H4.125C3.8125 4.5 3.54688 4.60937 3.32812 4.82812C3.10937 5.04688 3 5.3125 3 5.625C3 5.9375 3.10937 6.20312 3.32812 6.42188C3.54688 6.64063 3.8125 6.75 4.125 6.75Z" fill="white"/>
</g>
</svg>
