<svg width="14" height="14" viewBox="0 0 14 14" fill="none" xmlns="http://www.w3.org/2000/svg">
<mask id="mask0_676_8087" style="mask-type:alpha" maskUnits="userSpaceOnUse" x="0" y="0" width="14" height="14">
<rect width="14" height="14" fill="#D9D9D9"/>
</mask>
<g mask="url(#mask0_676_8087)">
<path d="M4.7263 12.3739C4.01658 12.0677 3.39922 11.652 2.87422 11.127C2.34922 10.602 1.93359 9.98468 1.62734 9.27496C1.32109 8.56524 1.16797 7.8069 1.16797 6.99996C1.16797 6.19302 1.32109 5.43468 1.62734 4.72496C1.93359 4.01524 2.34922 3.39788 2.87422 2.87288C3.39922 2.34788 4.01658 1.93225 4.7263 1.626C5.43602 1.31975 6.19436 1.16663 7.0013 1.16663C7.80825 1.16663 8.56658 1.31975 9.2763 1.626C9.98602 1.93225 10.6034 2.34788 11.1284 2.87288C11.6534 3.39788 12.069 4.01524 12.3753 4.72496C12.6815 5.43468 12.8346 6.19302 12.8346 6.99996C12.8346 7.8069 12.6815 8.56524 12.3753 9.27496C12.069 9.98468 11.6534 10.602 11.1284 11.127C10.6034 11.652 9.98602 12.0677 9.2763 12.3739C8.56658 12.6802 7.80825 12.8333 7.0013 12.8333C6.19436 12.8333 5.43602 12.6802 4.7263 12.3739ZM7.0013 11.6666C8.30408 11.6666 9.40755 11.2145 10.3117 10.3104C11.2159 9.40621 11.668 8.30274 11.668 6.99996C11.668 6.37774 11.5489 5.78225 11.3107 5.2135C11.0725 4.64475 10.7346 4.14163 10.2971 3.70413L3.70547 10.2958C4.14297 10.7333 4.64609 11.0711 5.21484 11.3093C5.78359 11.5475 6.37908 11.6666 7.0013 11.6666ZM7.0013 9.33329V8.45829H9.91797V9.33329H7.0013ZM4.66797 6.70829H5.54297V5.54163H6.70964V4.66663H5.54297V3.49996H4.66797V4.66663H3.5013V5.54163H4.66797V6.70829Z" fill="#1C1B1F"/>
</g>
</svg>
