<svg width="24" height="24" viewBox="0 0 24 24" fill="none" xmlns="http://www.w3.org/2000/svg">
<mask id="mask0_2705_14296" style="mask-type:alpha" maskUnits="userSpaceOnUse" x="0" y="0" width="24" height="24">
<rect width="24" height="24" fill="#D9D9D9"/>
</mask>
<g mask="url(#mask0_2705_14296)">
<path d="M3 20V18H5V20H3ZM3 16V14H8V16H3ZM3 12V10H11V12H3ZM3 8V4H21V8H3ZM7 20V18H9V20H7ZM9.5 16V14H14.5V16H9.5ZM11 20V18H13V20H11ZM13 12V10H21V12H13ZM15 20V18H17V20H15ZM16 16V14H21V16H16ZM19 20V18H21V20H19Z" fill="white"/>
</g>
</svg>
