<svg width="14" height="14" viewBox="0 0 14 14" fill="none" xmlns="http://www.w3.org/2000/svg">
<mask id="mask0_676_8102" style="mask-type:alpha" maskUnits="userSpaceOnUse" x="0" y="0" width="14" height="14">
<rect width="14" height="14" fill="#D9D9D9"/>
</mask>
<g mask="url(#mask0_676_8102)">
<path d="M6.9987 12.25C5.70564 12.25 4.6046 11.8003 3.69557 10.901C2.78655 10.0017 2.33203 8.91524 2.33203 7.64163C2.33203 6.99996 2.45356 6.4069 2.69661 5.86246C2.93967 5.31801 3.27509 4.8319 3.70286 4.40413L6.9987 1.16663L10.2945 4.40413C10.7223 4.8319 11.0577 5.31801 11.3008 5.86246C11.5438 6.4069 11.6654 6.99996 11.6654 7.64163C11.6654 8.91524 11.2109 10.0017 10.3018 10.901C9.3928 11.8003 8.29175 12.25 6.9987 12.25ZM6.9987 11.0833V2.79996L4.51953 5.24996C4.17925 5.57079 3.92405 5.93295 3.75391 6.33642C3.58377 6.73989 3.4987 7.17496 3.4987 7.64163C3.4987 8.58468 3.83898 9.39406 4.51953 10.0698C5.20009 10.7454 6.02648 11.0833 6.9987 11.0833Z" fill="#1C1B1F"/>
</g>
</svg>
